<mxfile modified="2025-08-13T10:23:14.719Z" host="Electron" agent="Mozilla/5.0 (Macintosh; Intel Mac OS X 10_15_7) AppleWebKit/537.36 (KHTML, like Gecko) draw.io/24.4.8 Chrome/124.0.6367.207 Electron/30.0.6 Safari/537.36" etag="UXIWz2FzO7s4AKoSpQAo" version="24.4.8" type="device" pages="2">
  <diagram id="WI9T0HZ2pTsCkuznbFz-" name="contexts">
    <mxGraphModel dx="2651" dy="793" grid="1" gridSize="10" guides="1" tooltips="1" connect="1" arrows="1" fold="1" page="1" pageScale="1" pageWidth="1169" pageHeight="827" math="0" shadow="0">
      <root>
        <mxCell id="0" />
        <mxCell id="1" parent="0" />
        <mxCell id="ji3jPKUH2KlaJzFocLy6-1" value="&lt;div&gt;Cloud&lt;/div&gt;Context (Rules)" style="image;sketch=0;aspect=fixed;html=1;points=[];align=center;fontSize=12;image=img/lib/mscae/Tags.svg;" vertex="1" parent="1">
          <mxGeometry x="-960" y="280" width="42" height="50" as="geometry" />
        </mxCell>
        <mxCell id="ji3jPKUH2KlaJzFocLy6-2" value="&lt;div&gt;Typescript&lt;/div&gt;Context (Rules)" style="image;sketch=0;aspect=fixed;html=1;points=[];align=center;fontSize=12;image=img/lib/mscae/Tags.svg;" vertex="1" parent="1">
          <mxGeometry x="-870" y="280" width="42" height="50" as="geometry" />
        </mxCell>
        <mxCell id="ji3jPKUH2KlaJzFocLy6-3" value="&lt;div&gt;Aure&lt;/div&gt;Context (Rules)" style="image;sketch=0;aspect=fixed;html=1;points=[];align=center;fontSize=12;image=img/lib/mscae/Tags.svg;" vertex="1" parent="1">
          <mxGeometry x="-780" y="280" width="42" height="50" as="geometry" />
        </mxCell>
        <mxCell id="ji3jPKUH2KlaJzFocLy6-4" value="Q" style="image;sketch=0;aspect=fixed;html=1;points=[];align=center;fontSize=12;image=img/lib/mscae/Application_Insights.svg;" vertex="1" parent="1">
          <mxGeometry x="-860" y="163.5" width="32" height="50" as="geometry" />
        </mxCell>
        <mxCell id="ji3jPKUH2KlaJzFocLy6-5" value="Code Pilot" style="image;sketch=0;aspect=fixed;html=1;points=[];align=center;fontSize=12;image=img/lib/mscae/Application_Insights.svg;" vertex="1" parent="1">
          <mxGeometry x="-580" y="163.5" width="32" height="50" as="geometry" />
        </mxCell>
        <mxCell id="ji3jPKUH2KlaJzFocLy6-6" value="&lt;div&gt;Java&lt;/div&gt;Context (Rules)" style="image;sketch=0;aspect=fixed;html=1;points=[];align=center;fontSize=12;image=img/lib/mscae/Tags.svg;" vertex="1" parent="1">
          <mxGeometry x="-580" y="280" width="42" height="50" as="geometry" />
        </mxCell>
        <mxCell id="ji3jPKUH2KlaJzFocLy6-7" value="Q Customizations" style="image;sketch=0;aspect=fixed;html=1;points=[];align=center;fontSize=12;image=img/lib/mscae/Application_Insights.svg;" vertex="1" parent="1">
          <mxGeometry x="-390" y="163.5" width="32" height="50" as="geometry" />
        </mxCell>
        <mxCell id="ji3jPKUH2KlaJzFocLy6-8" value="" style="image;sketch=0;aspect=fixed;html=1;points=[];align=center;fontSize=12;image=img/lib/mscae/Azure_Repos.svg;" vertex="1" parent="1">
          <mxGeometry x="-396.5" y="389" width="45" height="50" as="geometry" />
        </mxCell>
        <mxCell id="ji3jPKUH2KlaJzFocLy6-9" value="Model Training" style="image;sketch=0;aspect=fixed;html=1;points=[];align=center;fontSize=12;image=img/lib/mscae/Cognitive_Services.svg;" vertex="1" parent="1">
          <mxGeometry x="-396.5" y="290" width="50" height="30" as="geometry" />
        </mxCell>
        <mxCell id="-DxKpAvKDYvh7u8FKhAR-1" value="Bot" style="image;sketch=0;aspect=fixed;html=1;points=[];align=center;fontSize=12;image=img/lib/mscae/Application_Insights.svg;" vertex="1" parent="1">
          <mxGeometry x="-20" y="174.5" width="32" height="50" as="geometry" />
        </mxCell>
        <mxCell id="-DxKpAvKDYvh7u8FKhAR-2" value="Repos" style="image;sketch=0;aspect=fixed;html=1;points=[];align=center;fontSize=12;image=img/lib/mscae/Azure_Repos.svg;" vertex="1" parent="1">
          <mxGeometry x="-130" y="400" width="45" height="50" as="geometry" />
        </mxCell>
        <mxCell id="-DxKpAvKDYvh7u8FKhAR-3" value="Model Training" style="image;sketch=0;aspect=fixed;html=1;points=[];align=center;fontSize=12;image=img/lib/mscae/Cognitive_Services.svg;" vertex="1" parent="1">
          <mxGeometry x="-88" y="301" width="50" height="30" as="geometry" />
        </mxCell>
        <mxCell id="-DxKpAvKDYvh7u8FKhAR-4" value="Docs" style="image;aspect=fixed;html=1;points=[];align=center;fontSize=12;image=img/lib/azure2/general/Files.svg;" vertex="1" parent="1">
          <mxGeometry x="-59" y="400" width="64" height="70" as="geometry" />
        </mxCell>
        <mxCell id="-DxKpAvKDYvh7u8FKhAR-14" value="Mermaid&amp;nbsp;&lt;div&gt;charts&lt;/div&gt;" style="image;sketch=0;aspect=fixed;html=1;points=[];align=center;fontSize=12;image=img/lib/mscae/Management_Groups.svg;" vertex="1" parent="1">
          <mxGeometry x="50" y="405" width="50" height="40" as="geometry" />
        </mxCell>
        <mxCell id="-DxKpAvKDYvh7u8FKhAR-15" value="&lt;div&gt;&lt;br&gt;&lt;/div&gt;Context (Rules)" style="image;sketch=0;aspect=fixed;html=1;points=[];align=center;fontSize=12;image=img/lib/mscae/Tags.svg;" vertex="1" parent="1">
          <mxGeometry x="50" y="291" width="42" height="50" as="geometry" />
        </mxCell>
        <mxCell id="-DxKpAvKDYvh7u8FKhAR-16" value="Devcontainers :)" style="image;sketch=0;aspect=fixed;html=1;points=[];align=center;fontSize=12;image=img/lib/mscae/Developer_Tools.svg;" vertex="1" parent="1">
          <mxGeometry x="-920" y="470" width="47" height="50" as="geometry" />
        </mxCell>
        <mxCell id="-DxKpAvKDYvh7u8FKhAR-17" value="IDE&#39;s" style="image;sketch=0;aspect=fixed;html=1;points=[];align=center;fontSize=12;image=img/lib/mscae/Developer_Tools.svg;" vertex="1" parent="1">
          <mxGeometry x="-1050" y="470" width="47" height="50" as="geometry" />
        </mxCell>
        <mxCell id="-DxKpAvKDYvh7u8FKhAR-18" value="REPO" style="image;sketch=0;aspect=fixed;html=1;points=[];align=center;fontSize=12;image=img/lib/mscae/Azure_DevOps.svg;" vertex="1" parent="1">
          <mxGeometry x="-869" y="30" width="50" height="50" as="geometry" />
        </mxCell>
        <mxCell id="-DxKpAvKDYvh7u8FKhAR-19" value="S3" style="text;html=1;align=center;verticalAlign=middle;resizable=0;points=[];autosize=1;strokeColor=none;fillColor=none;" vertex="1" parent="1">
          <mxGeometry x="-450" y="394" width="40" height="30" as="geometry" />
        </mxCell>
        <mxCell id="-DxKpAvKDYvh7u8FKhAR-20" value="assign to user or group" style="image;sketch=0;aspect=fixed;html=1;points=[];align=center;fontSize=12;image=img/lib/mscae/Two_User_Icon.svg;" vertex="1" parent="1">
          <mxGeometry x="-280" y="150" width="50" height="50" as="geometry" />
        </mxCell>
      </root>
    </mxGraphModel>
  </diagram>
  <diagram id="OFFKAfBLFk25m35dVBGj" name="bot">
    <mxGraphModel dx="2309" dy="793" grid="1" gridSize="10" guides="1" tooltips="1" connect="1" arrows="1" fold="1" page="1" pageScale="1" pageWidth="827" pageHeight="1169" math="0" shadow="0">
      <root>
        <mxCell id="0" />
        <mxCell id="1" parent="0" />
        <mxCell id="Muw7vhSDvCNYd5UHzvSD-1" style="edgeStyle=elbowEdgeStyle;rounded=0;orthogonalLoop=1;jettySize=auto;html=1;strokeColor=#808080;" edge="1" parent="1" source="Muw7vhSDvCNYd5UHzvSD-6" target="Muw7vhSDvCNYd5UHzvSD-13">
          <mxGeometry relative="1" as="geometry">
            <Array as="points">
              <mxPoint x="909.5" y="295.5" />
            </Array>
          </mxGeometry>
        </mxCell>
        <mxCell id="Muw7vhSDvCNYd5UHzvSD-2" style="edgeStyle=elbowEdgeStyle;rounded=0;orthogonalLoop=1;jettySize=auto;html=1;strokeColor=#808080;exitX=0.997;exitY=0.495;exitDx=0;exitDy=0;exitPerimeter=0;" edge="1" parent="1" source="Muw7vhSDvCNYd5UHzvSD-7" target="Muw7vhSDvCNYd5UHzvSD-12">
          <mxGeometry relative="1" as="geometry" />
        </mxCell>
        <mxCell id="Muw7vhSDvCNYd5UHzvSD-3" style="edgeStyle=elbowEdgeStyle;rounded=0;orthogonalLoop=1;jettySize=auto;html=1;strokeColor=#808080;" edge="1" parent="1" source="Muw7vhSDvCNYd5UHzvSD-9">
          <mxGeometry relative="1" as="geometry">
            <mxPoint x="720.5" y="405.5" as="targetPoint" />
          </mxGeometry>
        </mxCell>
        <mxCell id="Muw7vhSDvCNYd5UHzvSD-4" style="edgeStyle=elbowEdgeStyle;rounded=0;orthogonalLoop=1;jettySize=auto;html=1;entryX=0.494;entryY=1.052;entryDx=0;entryDy=0;entryPerimeter=0;strokeColor=#808080;" edge="1" parent="1" source="Muw7vhSDvCNYd5UHzvSD-12" target="Muw7vhSDvCNYd5UHzvSD-13">
          <mxGeometry relative="1" as="geometry" />
        </mxCell>
        <mxCell id="Muw7vhSDvCNYd5UHzvSD-5" value="" style="shape=image;verticalLabelPosition=bottom;labelBackgroundColor=#ffffff;verticalAlign=top;aspect=fixed;imageAspect=0;image=data:image/svg+xml,PHN2ZyB4bWxuczpkYz0iaHR0cDovL3B1cmwub3JnL2RjL2VsZW1lbnRzLzEuMS8iIHhtbG5zOmNjPSJodHRwOi8vY3JlYXRpdmVjb21tb25zLm9yZy9ucyMiIHhtbG5zOnJkZj0iaHR0cDovL3d3dy53My5vcmcvMTk5OS8wMi8yMi1yZGYtc3ludGF4LW5zIyIgeG1sbnM6c3ZnPSJodHRwOi8vd3d3LnczLm9yZy8yMDAwL3N2ZyIgeG1sbnM9Imh0dHA6Ly93d3cudzMub3JnLzIwMDAvc3ZnIiB4bWxuczp4bGluaz0iaHR0cDovL3d3dy53My5vcmcvMTk5OS94bGluayIgeG1sbnM6c29kaXBvZGk9Imh0dHA6Ly9zb2RpcG9kaS5zb3VyY2Vmb3JnZS5uZXQvRFREL3NvZGlwb2RpLTAuZHRkIiB4bWxuczppbmtzY2FwZT0iaHR0cDovL3d3dy5pbmtzY2FwZS5vcmcvbmFtZXNwYWNlcy9pbmtzY2FwZSIgdmVyc2lvbj0iMS4xIiBpZD0iTGF5ZXJfMSIgeD0iMHB4IiB5PSIwcHgiIHZpZXdCb3g9IjAgMCA0Ny45NTM3NyA0Ny45NDAzNjkiIHhtbDpzcGFjZT0icHJlc2VydmUiIHNvZGlwb2RpOmRvY25hbWU9ImRldm9wc19zaGlwcGluZy5zdmciIHdpZHRoPSI0Ny45NTM3NyIgaGVpZ2h0PSI0Ny45NDAzNjkiIGlua3NjYXBlOnZlcnNpb249IjAuOTIuMyAoMjQwNTU0NiwgMjAxOC0wMy0xMSkiPjxtZXRhZGF0YSBpZD0ibWV0YWRhdGE0NjI2NyI+PHJkZjpSREY+PGNjOldvcmsgcmRmOmFib3V0PSIiPjxkYzpmb3JtYXQ+aW1hZ2Uvc3ZnK3htbDwvZGM6Zm9ybWF0PjxkYzp0eXBlIHJkZjpyZXNvdXJjZT0iaHR0cDovL3B1cmwub3JnL2RjL2RjbWl0eXBlL1N0aWxsSW1hZ2UiLz48ZGM6dGl0bGUvPjwvY2M6V29yaz48L3JkZjpSREY+PC9tZXRhZGF0YT48ZGVmcyBpZD0iZGVmczQ2MjY1Ii8+PHNvZGlwb2RpOm5hbWVkdmlldyBwYWdlY29sb3I9IiNmZmZmZmYiIGJvcmRlcmNvbG9yPSIjNjY2NjY2IiBib3JkZXJvcGFjaXR5PSIxIiBvYmplY3R0b2xlcmFuY2U9IjEwIiBncmlkdG9sZXJhbmNlPSIxMCIgZ3VpZGV0b2xlcmFuY2U9IjEwIiBpbmtzY2FwZTpwYWdlb3BhY2l0eT0iMCIgaW5rc2NhcGU6cGFnZXNoYWRvdz0iMiIgaW5rc2NhcGU6d2luZG93LXdpZHRoPSIxOTIwIiBpbmtzY2FwZTp3aW5kb3ctaGVpZ2h0PSIxMDE3IiBpZD0ibmFtZWR2aWV3NDYyNjMiIHNob3dncmlkPSJmYWxzZSIgZml0LW1hcmdpbi10b3A9IjAiIGZpdC1tYXJnaW4tbGVmdD0iMCIgZml0LW1hcmdpbi1yaWdodD0iMCIgZml0LW1hcmdpbi1ib3R0b209IjAiIGlua3NjYXBlOnpvb209IjEuMDMwMzAzIiBpbmtzY2FwZTpjeD0iLTYuNzg1MDAzNyIgaW5rc2NhcGU6Y3k9Ii0zMTAuNDQ5NjMiIGlua3NjYXBlOndpbmRvdy14PSItOCIgaW5rc2NhcGU6d2luZG93LXk9Ii04IiBpbmtzY2FwZTp3aW5kb3ctbWF4aW1pemVkPSIxIiBpbmtzY2FwZTpjdXJyZW50LWxheWVyPSJMYXllcl8xIi8+JiN4YTsmI3hhOzxnIGlkPSJnNDYyNjAiIHRyYW5zZm9ybT0idHJhbnNsYXRlKC0zMDQuMTYsLTYyLjM2MDAwMSkiPiYjeGE7CTxkZWZzIGlkPSJkZWZzNDYyMTkiPiYjeGE7CQk8cmVjdCBpZD0iU1ZHSURfM18iIHg9IjMwNC4xNiIgeT0iNjIuMzYwMDAxIiB3aWR0aD0iNDguMTYiIGhlaWdodD0iNDguMTYiLz4mI3hhOwk8L2RlZnM+JiN4YTsJPGNsaXBQYXRoIGlkPSJTVkdJRF80XyI+JiN4YTsJCTx1c2UgeGxpbms6aHJlZj0iI1NWR0lEXzNfIiBzdHlsZT0ib3ZlcmZsb3c6dmlzaWJsZSIgaWQ9InVzZTQ2MjIxIiB4PSIwIiB5PSIwIiB3aWR0aD0iMTAwJSIgaGVpZ2h0PSIxMDAlIi8+JiN4YTsJPC9jbGlwUGF0aD4mI3hhOwk8ZyBjbGlwLXBhdGg9InVybCgjU1ZHSURfNF8pIiBpZD0iZzQ2MjU4Ij4mI3hhOwkJPGRlZnMgaWQ9ImRlZnM0NjIyNSI+JiN4YTsJCQk8cmVjdCBpZD0iU1ZHSURfNV8iIHg9IjMwNC4xNiIgeT0iNjIuMzYwMDAxIiB3aWR0aD0iNDguMTYiIGhlaWdodD0iNDguMTYiLz4mI3hhOwkJPC9kZWZzPiYjeGE7CQk8Y2xpcFBhdGggaWQ9IlNWR0lEXzZfIj4mI3hhOwkJCTx1c2UgeGxpbms6aHJlZj0iI1NWR0lEXzVfIiBzdHlsZT0ib3ZlcmZsb3c6dmlzaWJsZSIgaWQ9InVzZTQ2MjI3IiB4PSIwIiB5PSIwIiB3aWR0aD0iMTAwJSIgaGVpZ2h0PSIxMDAlIi8+JiN4YTsJCTwvY2xpcFBhdGg+JiN4YTsJCTxwYXRoIHN0eWxlPSJmaWxsOiNmZmZmZmYiIGQ9Im0gMzI4LjEzLDEwOS45NCBjIC05LjUzLDAgLTE4LjE2LC01Ljc1IC0yMS44MSwtMTQuNTYgLTMuNjYsLTguODEgLTEuNjIsLTE5IDUuMTUsLTI1LjcxIDYuNzEsLTYuNzcgMTYuOSwtOC44MSAyNS43MSwtNS4xNSA4LjgxLDMuNjYgMTQuNTYsMTIuMjkgMTQuNTYsMjEuODEgLTAuMDYsMTMgLTEwLjYxLDIzLjU1IC0yMy42MSwyMy42MSB6IiBjbGlwLXBhdGg9InVybCgjU1ZHSURfNl8pIiBpZD0icGF0aDQ2MjMwIiBpbmtzY2FwZTpjb25uZWN0b3ItY3VydmF0dXJlPSIwIi8+JiN4YTsJCTxwYXRoIHN0eWxlPSJmaWxsOiNlNWU1ZTUiIGQ9Im0gMzI4LjEzLDEwOS41OCBjIC02Ljg5LDAgLTEzLjM2LC0zLjA2IC0xNy44LC04LjMzIC0wLjY2LC0wLjg0IC0xLjMyLC0xLjY4IC0xLjg2LC0yLjU4IC0wLjQ4LC0wLjcyIC0wLjg0LC0xLjQ0IC0xLjIsLTIuMTYgbCAtMC4xMiwtMC4xMiBjIC0wLjEyLC0wLjI0IC0wLjE4LC0wLjQyIC0wLjMsLTAuNiBsIC0wLjEyLC0wLjQ4IGMgLTAuNDgsLTAuOTYgLTAuNzgsLTEuOTggLTEuMDgsLTMgLTAuNDIsLTEuNSAtMC42NiwtMyAtMC43MiwtNC40OSBoIDQ2LjM4IGMgLTAuNzcsMTIuMjMgLTEwLjk2LDIxLjc2IC0yMy4xOCwyMS43NiB6IiBjbGlwLXBhdGg9InVybCgjU1ZHSURfNl8pIiBpZD0icGF0aDQ2MjMyIiBpbmtzY2FwZTpjb25uZWN0b3ItY3VydmF0dXJlPSIwIi8+JiN4YTsJCTxwb2x5Z29uIHN0eWxlPSJmaWxsOiNmZmZmZmYiIHBvaW50cz0iMzMxLjksNzguODQgMzMxLjksOTMuMSAzNDMuODksOTMuMSAzNDMuODksODQuMjkgMzM5LjIyLDc4Ljg0ICIgY2xpcC1wYXRoPSJ1cmwoI1NWR0lEXzZfKSIgaWQ9InBvbHlnb240NjIzNCIvPiYjeGE7CQk8cG9seWdvbiBzdHlsZT0iZmlsbDojMmJjN2Y0IiBwb2ludHM9IjMzNC45LDg1LjYxIDMzNC45LDc5LjYyIDMzOS40LDc5LjYyIDM0My4xMSw4My43NSAzNDMuODksODUuNjEgIiBjbGlwLXBhdGg9InVybCgjU1ZHSURfNl8pIiBpZD0icG9seWdvbjQ2MjM2Ii8+JiN4YTsJCTxwYXRoIHN0eWxlPSJmaWxsOiM1NTZhOGEiIGQ9Im0gMzQ0LjY0LDkzLjEgLTAuNzUsMC43NSBIIDMzMS45IEwgMzMxLjE1LDkzLjEgViA3OC44NCBsIDAuNzUsLTAuNzUgaCA3LjMxIGwgMC41NywwLjI2IDQuNjcsNS40NSAwLjE4LDAuNDkgdiA4LjgxIHogbSAtMS41LC04LjgxIDAuMTgsMC40OSAtNC42NywtNS40NSAwLjU3LDAuMjYgaCAtNy4zMSBsIDAuNzUsLTAuNzUgViA5My4xIGwgLTAuNzUsLTAuNzUgaCAxMS45OCBsIC0wLjc1LDAuNzUgeiIgY2xpcC1wYXRoPSJ1cmwoI1NWR0lEXzZfKSIgaWQ9InBhdGg0NjIzOCIgaW5rc2NhcGU6Y29ubmVjdG9yLWN1cnZhdHVyZT0iMCIvPiYjeGE7CQk8cmVjdCB4PSIzMTMuMTQ5OTkiIHk9Ijc1LjEyMDAwMyIgc3R5bGU9ImZpbGw6I2ZmZmZmZiIgd2lkdGg9IjIxLjc1IiBoZWlnaHQ9IjE3Ljk4IiBjbGlwLXBhdGg9InVybCgjU1ZHSURfNl8pIiBpZD0icmVjdDQ2MjQwIi8+JiN4YTsJCTxwYXRoIHN0eWxlPSJmaWxsOiM1NTZhOGEiIGQ9Im0gMzEzLjksOTMuMSAtMC43NSwtMC43NSBoIDIxLjc1IGwgLTAuNzUsMC43NSBWIDc1LjEyIGwgMC43NSwwLjc1IGggLTIxLjc1IGwgMC43NSwtMC43NSB6IG0gLTEuNSwtMTcuOTggMC43NSwtMC43NSBoIDIxLjc1IGwgMC43NSwwLjc1IFYgOTMuMSBsIC0wLjc1LDAuNzUgSCAzMTMuMTUgTCAzMTIuNCw5My4xIFoiIGNsaXAtcGF0aD0idXJsKCNTVkdJRF82XykiIGlkPSJwYXRoNDYyNDIiIGlua3NjYXBlOmNvbm5lY3Rvci1jdXJ2YXR1cmU9IjAiLz4mI3hhOwkJPGNpcmNsZSBzdHlsZT0iZmlsbDojZmZmZmZmIiBjeD0iMzE5LjkyMDAxIiBjeT0iOTQuNjYwMDA0IiByPSI0LjQ4OTk5OTgiIGNsaXAtcGF0aD0idXJsKCNTVkdJRF82XykiIGlkPSJjaXJjbGU0NjI0NCIvPiYjeGE7CQk8cGF0aCBzdHlsZT0iZmlsbDojNTU2YThhIiBkPSJtIDMyMy42NCw5NC4yNCAwLjAxLDAuMDggLTAuMDcsLTAuNDQgMC4wMywwLjEyIC0wLjI3LC0wLjg0IDAuMDUsMC4xMyAtMC40MSwtMC43NiAwLjA4LDAuMTIgLTAuNTUsLTAuNjcgMC4xLDAuMSAtMC42NywtMC41NSAwLjEyLDAuMDggLTAuNzYsLTAuNDEgMC4xMywwLjA1IC0wLjg0LC0wLjI3IDAuMTIsMC4wMyAtMC40NCwtMC4wNyAwLjA4LDAuMDEgLTAuNDYsLTAuMDIgaCAwLjA3IGwgLTAuNDYsMC4wMiAwLjA3LC0wLjAxIC0wLjQ1LDAuMDYgMC4xMiwtMC4wMyAtMC44NSwwLjI3IDAuMTMsLTAuMDUgLTAuNzYsMC40MSAwLjEyLC0wLjA4IC0wLjY3LDAuNTUgMC4xLC0wLjEgLTAuNTUsMC42NyAwLjA4LC0wLjEyIC0wLjQsMC43NiAwLjA1LC0wLjEzIC0wLjI2LDAuODQgMC4wMiwtMC4xMSAtMC4wNywwLjQ0IDAuMDEsLTAuMDggLTAuMDIsMC40NiB2IC0wLjA3IGwgMC4wMiwwLjQ2IC0wLjAxLC0wLjA3IDAuMDcsMC40NSAtMC4wMiwtMC4xMSAwLjI2LDAuODUgLTAuMDUsLTAuMTMgMC40LDAuNzYgLTAuMDgsLTAuMTMgMC41NSwwLjY2IC0wLjEsLTAuMSAwLjY3LDAuNTUgLTAuMTIsLTAuMDggMC43NiwwLjQxIC0wLjE0LC0wLjA2IDAuODUsMC4yNSAtMC4xLC0wLjAyIDAuNDUsMC4wNyAtMC4wNywtMC4wMSAwLjQ2LDAuMDIgaCAtMC4wNyBsIDAuNDYsLTAuMDIgLTAuMDgsMC4wMSAwLjQ0LC0wLjA3IC0wLjEsMC4wMiAwLjg0LC0wLjI1IC0wLjE0LDAuMDYgMC43NiwtMC40MSAtMC4xMiwwLjA4IDAuNjcsLTAuNTUgLTAuMSwwLjEgMC41NSwtMC42NiAtMC4wOSwwLjEzIDAuNDEsLTAuNzYgLTAuMDUsMC4xMyAwLjI3LC0wLjg1IC0wLjAzLDAuMTEgMC4wNywtMC40NSAtMC4wMSwwLjA3IDAuMDIsLTAuNDYgdiAwLjA3IHogbSAxLjUyLDAuMzggdiAwLjA3IGwgLTAuMDIsMC40NiAtMC4wMSwwLjA3IC0wLjA3LDAuNDUgLTAuMDMsMC4xMSAtMC4yNywwLjg1IC0wLjA1LDAuMTMgLTAuNDEsMC43NiAtMC4wOSwwLjEzIC0wLjU1LDAuNjYgLTAuMSwwLjEgLTAuNjcsMC41NSAtMC4xMiwwLjA4IC0wLjc2LDAuNDEgLTAuMTQsMC4wNiAtMC44NCwwLjI1IC0wLjEsMC4wMiAtMC40NCwwLjA3IC0wLjA4LDAuMDEgLTAuNDYsMC4wMiBoIC0wLjA3IGwgLTAuNDYsLTAuMDIgLTAuMDcsLTAuMDEgLTAuNDUsLTAuMDcgLTAuMSwtMC4wMiAtMC44NSwtMC4yNSAtMC4xNCwtMC4wNiAtMC43NiwtMC40MSAtMC4xMiwtMC4wOCAtMC42NywtMC41NSAtMC4xLC0wLjEgLTAuNTUsLTAuNjYgLTAuMDgsLTAuMTMgLTAuNCwtMC43NiAtMC4wNSwtMC4xMyAtMC4yNiwtMC44NSAtMC4wMiwtMC4xMSAtMC4wNywtMC40NSAtMC4wMSwtMC4wNyAtMC4wMiwtMC40NiB2IC0wLjA3IGwgMC4wMiwtMC40NiAwLjAxLC0wLjA4IDAuMDcsLTAuNDQgMC4wMiwtMC4xMSAwLjI2LC0wLjg0IDAuMDUsLTAuMTMgMC40LC0wLjc2IDAuMDgsLTAuMTIgMC41NSwtMC42NyAwLjEsLTAuMSAwLjY3LC0wLjU1IDAuMTIsLTAuMDggMC43NiwtMC40MSAwLjEzLC0wLjA1IDAuODUsLTAuMjcgMC4xMiwtMC4wMyAwLjQ1LC0wLjA3IDAuMDcsLTAuMDEgMC40NiwtMC4wMiBoIDAuMDcgbCAwLjQ2LDAuMDIgMC4wOCwwLjAxIDAuNDQsMC4wNyAwLjEyLDAuMDMgMC44NCwwLjI3IDAuMTMsMC4wNSAwLjc2LDAuNDEgMC4xMiwwLjA4IDAuNjcsMC41NSAwLjEsMC4xIDAuNTUsMC42NyAwLjA4LDAuMTIgMC40MSwwLjc2IDAuMDUsMC4xMyAwLjI3LDAuODQgMC4wMywwLjEyIDAuMDcsMC40NCAwLjAxLDAuMDggeiIgY2xpcC1wYXRoPSJ1cmwoI1NWR0lEXzZfKSIgaWQ9InBhdGg0NjI0NiIgaW5rc2NhcGU6Y29ubmVjdG9yLWN1cnZhdHVyZT0iMCIvPiYjeGE7CQk8cGF0aCBzdHlsZT0iZmlsbDojMmJjN2Y0IiBkPSJtIDMyMS40Miw5NC42NiBjIDAsMC44NCAtMC43MiwxLjUgLTEuNSwxLjUgLTAuODQsMCAtMS41LC0wLjY2IC0xLjUsLTEuNSAwLC0wLjg0IDAuNjYsLTEuNSAxLjUsLTEuNSAwLjc4LDAgMS41LDAuNjYgMS41LDEuNSB6IiBjbGlwLXBhdGg9InVybCgjU1ZHSURfNl8pIiBpZD0icGF0aDQ2MjQ4IiBpbmtzY2FwZTpjb25uZWN0b3ItY3VydmF0dXJlPSIwIi8+JiN4YTsJCTxjaXJjbGUgc3R5bGU9ImZpbGw6I2ZmZmZmZiIgY3g9IjMzNC44OTk5OSIgY3k9Ijk0LjY2MDAwNCIgcj0iNC40ODk5OTk4IiBjbGlwLXBhdGg9InVybCgjU1ZHSURfNl8pIiBpZD0iY2lyY2xlNDYyNTAiLz4mI3hhOwkJPHBhdGggc3R5bGU9ImZpbGw6IzU1NmE4YSIgZD0ibSAzMzguNjIsOTQuMjQgMC4wMSwwLjA4IC0wLjA3LC0wLjQ0IDAuMDMsMC4xMiAtMC4yNywtMC44NCAwLjA1LDAuMTMgLTAuNDEsLTAuNzYgMC4wOCwwLjEyIC0wLjU1LC0wLjY3IDAuMSwwLjEgLTAuNjcsLTAuNTUgMC4xMiwwLjA4IC0wLjc2LC0wLjQxIDAuMTMsMC4wNSAtMC44NCwtMC4yNyAwLjEyLDAuMDMgLTAuNDQsLTAuMDcgMC4wOCwwLjAxIC0wLjQ2LC0wLjAyIGggMC4wNyBsIC0wLjQ2LDAuMDIgMC4wNywtMC4wMSAtMC40NSwwLjA2IDAuMTIsLTAuMDMgLTAuODUsMC4yNyAwLjEzLC0wLjA1IC0wLjc2LDAuNDEgMC4xMiwtMC4wOCAtMC42NywwLjU1IDAuMSwtMC4xIC0wLjU1LDAuNjcgMC4wOCwtMC4xMiAtMC40LDAuNzYgMC4wNSwtMC4xMyAtMC4yNiwwLjg0IDAuMDIsLTAuMTEgLTAuMDcsMC40NCAwLjAxLC0wLjA4IC0wLjAyLDAuNDYgdiAtMC4wNyBsIDAuMDIsMC40NiAtMC4wMSwtMC4wNyAwLjA3LDAuNDUgLTAuMDIsLTAuMTEgMC4yNiwwLjg1IC0wLjA1LC0wLjEzIDAuNCwwLjc2IC0wLjA4LC0wLjEzIDAuNTUsMC42NiAtMC4xLC0wLjEgMC42NywwLjU1IC0wLjEyLC0wLjA4IDAuNzYsMC40MSAtMC4xNCwtMC4wNiAwLjg1LDAuMjUgLTAuMSwtMC4wMiAwLjQ1LDAuMDcgLTAuMDcsLTAuMDEgMC40NiwwLjAyIGggLTAuMDcgbCAwLjQ2LC0wLjAyIC0wLjA4LDAuMDEgMC40NCwtMC4wNyAtMC4xLDAuMDIgMC44NCwtMC4yNSAtMC4xNCwwLjA2IDAuNzYsLTAuNDEgLTAuMTIsMC4wOCAwLjY3LC0wLjU1IC0wLjEsMC4xIDAuNTUsLTAuNjYgLTAuMDksMC4xMyAwLjQxLC0wLjc2IC0wLjA1LDAuMTMgMC4yNywtMC44NSAtMC4wMywwLjExIDAuMDcsLTAuNDUgLTAuMDEsMC4wNyAwLjAyLC0wLjQ2IHYgMC4wNyB6IG0gMS41MiwwLjM4IHYgMC4wNyBsIC0wLjAyLDAuNDYgLTAuMDEsMC4wNyAtMC4wNywwLjQ1IC0wLjAzLDAuMTEgLTAuMjcsMC44NSAtMC4wNSwwLjEzIC0wLjQxLDAuNzYgLTAuMDksMC4xMyAtMC41NSwwLjY2IC0wLjEsMC4xIC0wLjY3LDAuNTUgLTAuMTIsMC4wOCAtMC43NiwwLjQxIC0wLjE0LDAuMDYgLTAuODQsMC4yNSAtMC4xLDAuMDIgLTAuNDQsMC4wNyAtMC4wOCwwLjAxIC0wLjQ2LDAuMDIgaCAtMC4wNyBsIC0wLjQ2LC0wLjAyIC0wLjA3LC0wLjAxIC0wLjQ1LC0wLjA3IC0wLjEsLTAuMDIgLTAuODUsLTAuMjUgLTAuMTQsLTAuMDYgLTAuNzYsLTAuNDEgLTAuMTIsLTAuMDggLTAuNjcsLTAuNTUgLTAuMSwtMC4xIC0wLjU1LC0wLjY2IC0wLjA4LC0wLjEzIC0wLjQsLTAuNzYgLTAuMDUsLTAuMTMgLTAuMjYsLTAuODUgLTAuMDIsLTAuMTEgLTAuMDcsLTAuNDUgLTAuMDEsLTAuMDcgLTAuMDIsLTAuNDYgdiAtMC4wNyBsIDAuMDIsLTAuNDYgMC4wMSwtMC4wOCAwLjA3LC0wLjQ0IDAuMDIsLTAuMTEgMC4yNiwtMC44NCAwLjA1LC0wLjEzIDAuNCwtMC43NiAwLjA4LC0wLjEyIDAuNTUsLTAuNjcgMC4xLC0wLjEgMC42NywtMC41NSAwLjEyLC0wLjA4IDAuNzYsLTAuNDEgMC4xMywtMC4wNSAwLjg1LC0wLjI3IDAuMTIsLTAuMDMgMC40NSwtMC4wNyAwLjA3LC0wLjAxIDAuNDYsLTAuMDIgaCAwLjA3IGwgMC40NiwwLjAyIDAuMDgsMC4wMSAwLjQ0LDAuMDcgMC4xMiwwLjAzIDAuODQsMC4yNyAwLjEzLDAuMDUgMC43NiwwLjQxIDAuMTIsMC4wOCAwLjY3LDAuNTUgMC4xLDAuMSAwLjU1LDAuNjcgMC4wOCwwLjEyIDAuNDEsMC43NiAwLjA1LDAuMTMgMC4yNywwLjg0IDAuMDMsMC4xMiAwLjA3LDAuNDQgMC4wMSwwLjA4IHoiIGNsaXAtcGF0aD0idXJsKCNTVkdJRF82XykiIGlkPSJwYXRoNDYyNTIiIGlua3NjYXBlOmNvbm5lY3Rvci1jdXJ2YXR1cmU9IjAiLz4mI3hhOwkJPHBhdGggc3R5bGU9ImZpbGw6IzJiYzdmNCIgZD0ibSAzMzYuNCw5NC42NiBjIDAsMC44NCAtMC43MiwxLjUgLTEuNSwxLjUgLTAuODQsMCAtMS41LC0wLjY2IC0xLjUsLTEuNSAwLC0wLjg0IDAuNjYsLTEuNSAxLjUsLTEuNSAwLjc4LDAgMS41LDAuNjYgMS41LDEuNSB6IiBjbGlwLXBhdGg9InVybCgjU1ZHSURfNl8pIiBpZD0icGF0aDQ2MjU0IiBpbmtzY2FwZTpjb25uZWN0b3ItY3VydmF0dXJlPSIwIi8+JiN4YTsJCTxwYXRoIHN0eWxlPSJmaWxsOiM1NTZhOGEiIGQ9Im0gMzI4LjEzLDYyLjM2IGMgLTE1Ljc2LDAgLTI3LjIxLDE0LjkyIC0yMy4xOSwzMC4xNCAwLjMsMS4wMiAwLjY2LDIuMSAxLjA4LDMuMTIgMC4xOCwwLjQyIDAuMzYsMC44NCAwLjU0LDEuMiAwLjM2LDAuNzggMC43OCwxLjU2IDEuMjYsMi4yOCAwLjYsMC45IDEuMjYsMS44IDEuOTIsMi42NCAxMS4yNywxMy40MiAzMi43MiwxMC42MSA0MC4wOSwtNS4yNyA3LjQyLC0xNS44OSAtNC4xNCwtMzQuMTEgLTIxLjcsLTM0LjExIHogbSAwLDEuNSBjIDE2LjQyLDAgMjcuMzMsMTcuMDggMjAuMzcsMzIgLTYuOTUsMTQuODYgLTI3LjAzLDE3LjUgLTM3LjU3LDQuOTEgLTAuNzIsLTAuNzggLTEuMzIsLTEuNjIgLTEuODYsLTIuNTIgLTAuNDIsLTAuNjYgLTAuODQsLTEuMzggLTEuMTQsLTIuMSAtMC4yNCwtMC40MiAtMC40MiwtMC43OCAtMC41NCwtMS4xNCAtMC40MiwtMC45NiAtMC43MiwtMS45MiAtMC45NiwtMi45NCAtMy44MywtMTQuMjUgNi45NiwtMjguMjEgMjEuNywtMjguMjEgeiIgY2xpcC1wYXRoPSJ1cmwoI1NWR0lEXzZfKSIgaWQ9InBhdGg0NjI1NiIgaW5rc2NhcGU6Y29ubmVjdG9yLWN1cnZhdHVyZT0iMCIvPiYjeGE7CTwvZz4mI3hhOzwvZz4mI3hhOzwvc3ZnPg==;fillColor=#4D9900;" vertex="1" parent="1">
          <mxGeometry x="227.50000000000006" y="525" width="48" height="48" as="geometry" />
        </mxCell>
        <mxCell id="Muw7vhSDvCNYd5UHzvSD-6" value="Machine&lt;br&gt;Learning" style="aspect=fixed;html=1;perimeter=none;align=left;shadow=0;dashed=0;image;fontSize=12;image=img/lib/mscae/Machine_Learning.svg;labelBackgroundColor=#ffffff;fillColor=#4D9900;labelPosition=right;verticalLabelPosition=bottom;verticalAlign=top;" vertex="1" parent="1">
          <mxGeometry x="745.5" y="183.5" width="29" height="30" as="geometry" />
        </mxCell>
        <mxCell id="Muw7vhSDvCNYd5UHzvSD-7" value="Geography&lt;br&gt;Data" style="aspect=fixed;html=1;perimeter=none;align=center;shadow=0;dashed=0;image;fontSize=12;image=img/lib/mscae/BlobBlock.svg;labelBackgroundColor=#ffffff;fillColor=#4D9900;spacingTop=7;" vertex="1" parent="1">
          <mxGeometry x="695.5000000000001" y="358.2499999999999" width="50" height="42.5" as="geometry" />
        </mxCell>
        <mxCell id="Muw7vhSDvCNYd5UHzvSD-8" style="edgeStyle=orthogonalEdgeStyle;rounded=0;orthogonalLoop=1;jettySize=auto;html=1;exitX=0;exitY=0;exitDx=0;exitDy=0;" edge="1" parent="1" source="Muw7vhSDvCNYd5UHzvSD-9">
          <mxGeometry relative="1" as="geometry">
            <mxPoint x="760" y="480" as="targetPoint" />
          </mxGeometry>
        </mxCell>
        <mxCell id="Muw7vhSDvCNYd5UHzvSD-9" value="HDInsight" style="aspect=fixed;html=1;perimeter=none;align=center;shadow=0;dashed=0;image;fontSize=12;image=img/lib/mscae/HDInsight.svg;labelBackgroundColor=#ffffff;fillColor=#4D9900;spacingTop=4;" vertex="1" parent="1">
          <mxGeometry x="1020.0000000000001" y="414.0000000000001" width="50" height="38.5" as="geometry" />
        </mxCell>
        <mxCell id="Muw7vhSDvCNYd5UHzvSD-10" value="" style="edgeStyle=orthogonalEdgeStyle;rounded=0;orthogonalLoop=1;jettySize=auto;html=1;" edge="1" parent="1" source="Muw7vhSDvCNYd5UHzvSD-11" target="Muw7vhSDvCNYd5UHzvSD-23">
          <mxGeometry relative="1" as="geometry" />
        </mxCell>
        <mxCell id="Muw7vhSDvCNYd5UHzvSD-11" value="Vector&amp;nbsp;&lt;div&gt;Db&lt;/div&gt;" style="aspect=fixed;html=1;perimeter=none;align=center;shadow=0;dashed=0;image;fontSize=12;image=img/lib/mscae/Machine_Learning.svg;labelBackgroundColor=#ffffff;fillColor=#4D9900;" vertex="1" parent="1">
          <mxGeometry x="625" y="571.98" width="50" height="51.02" as="geometry" />
        </mxCell>
        <mxCell id="Muw7vhSDvCNYd5UHzvSD-12" value="SQL Data&lt;br&gt;Warehouse" style="aspect=fixed;html=1;perimeter=none;align=center;shadow=0;dashed=0;image;fontSize=12;image=img/lib/mscae/SQL_Database_generic.svg;labelBackgroundColor=#ffffff;fillColor=#4D9900;spacingTop=6;" vertex="1" parent="1">
          <mxGeometry x="890.2499999999998" y="478.5" width="37.5" height="50" as="geometry" />
        </mxCell>
        <mxCell id="Muw7vhSDvCNYd5UHzvSD-13" value="Power BI" style="shadow=0;dashed=0;html=1;strokeColor=none;labelPosition=center;verticalLabelPosition=bottom;verticalAlign=top;align=center;shape=mxgraph.mscae.cloud.power_bi_embedded;fillColor=#000000;pointerEvents=1;labelBackgroundColor=#ffffff;spacingTop=7;" vertex="1" parent="1">
          <mxGeometry x="885.4999999999999" y="354.5" width="47" height="50" as="geometry" />
        </mxCell>
        <mxCell id="Muw7vhSDvCNYd5UHzvSD-14" value="" style="edgeStyle=orthogonalEdgeStyle;rounded=0;orthogonalLoop=1;jettySize=auto;html=1;" edge="1" parent="1" source="Muw7vhSDvCNYd5UHzvSD-16" target="Muw7vhSDvCNYd5UHzvSD-11">
          <mxGeometry relative="1" as="geometry" />
        </mxCell>
        <mxCell id="Muw7vhSDvCNYd5UHzvSD-15" value="~Ingestion" style="edgeLabel;html=1;align=center;verticalAlign=middle;resizable=0;points=[];" vertex="1" connectable="0" parent="Muw7vhSDvCNYd5UHzvSD-14">
          <mxGeometry x="-0.0498" relative="1" as="geometry">
            <mxPoint as="offset" />
          </mxGeometry>
        </mxCell>
        <mxCell id="Muw7vhSDvCNYd5UHzvSD-16" value="&lt;div&gt;&lt;br&gt;&lt;/div&gt;Source&lt;div&gt;BitBucket&lt;/div&gt;" style="verticalLabelPosition=bottom;html=1;verticalAlign=top;align=center;strokeColor=none;fillColor=#00BEF2;shape=mxgraph.azure.git_repository;" vertex="1" parent="1">
          <mxGeometry x="800" y="573" width="50" height="50" as="geometry" />
        </mxCell>
        <mxCell id="Muw7vhSDvCNYd5UHzvSD-17" value="Shadbot&lt;div&gt;&lt;span style=&quot;color: rgb(0, 0, 0); background-color: rgb(255, 255, 255);&quot;&gt;&quot;configure new self service App?&lt;/span&gt;&lt;br&gt;&lt;/div&gt;" style="sketch=0;points=[[0,0,0],[0.25,0,0],[0.5,0,0],[0.75,0,0],[1,0,0],[0,1,0],[0.25,1,0],[0.5,1,0],[0.75,1,0],[1,1,0],[0,0.25,0],[0,0.5,0],[0,0.75,0],[1,0.25,0],[1,0.5,0],[1,0.75,0]];points=[[0,0,0],[0.25,0,0],[0.5,0,0],[0.75,0,0],[1,0,0],[0,1,0],[0.25,1,0],[0.5,1,0],[0.75,1,0],[1,1,0],[0,0.25,0],[0,0.5,0],[0,0.75,0],[1,0.25,0],[1,0.5,0],[1,0.75,0]];outlineConnect=0;fontColor=#232F3E;fillColor=#E7157B;strokeColor=#ffffff;dashed=0;verticalLabelPosition=bottom;verticalAlign=top;align=center;html=1;fontSize=12;fontStyle=0;aspect=fixed;shape=mxgraph.aws4.resourceIcon;resIcon=mxgraph.aws4.chatbot;" vertex="1" parent="1">
          <mxGeometry x="30" y="510" width="78" height="78" as="geometry" />
        </mxCell>
        <mxCell id="Muw7vhSDvCNYd5UHzvSD-18" value="" style="image;sketch=0;aspect=fixed;html=1;points=[];align=center;fontSize=12;image=img/lib/mscae/Cognitive_Services.svg;" vertex="1" parent="1">
          <mxGeometry x="745.5" y="850" width="50" height="30" as="geometry" />
        </mxCell>
        <mxCell id="Muw7vhSDvCNYd5UHzvSD-19" value="Larma" style="image;sketch=0;aspect=fixed;html=1;points=[];align=center;fontSize=12;image=img/lib/mscae/Bot_Services.svg;" vertex="1" parent="1">
          <mxGeometry x="460" y="190" width="50" height="50" as="geometry" />
        </mxCell>
        <mxCell id="Muw7vhSDvCNYd5UHzvSD-20" value="Ninja Prompts" style="verticalLabelPosition=bottom;html=1;verticalAlign=top;align=center;strokeColor=none;fillColor=#00BEF2;shape=mxgraph.azure.script_file;pointerEvents=1;" vertex="1" parent="1">
          <mxGeometry x="180" y="590" width="47.5" height="50" as="geometry" />
        </mxCell>
        <mxCell id="Muw7vhSDvCNYd5UHzvSD-21" value="Guard Rails" style="verticalLabelPosition=bottom;html=1;verticalAlign=top;align=center;strokeColor=none;fillColor=#00BEF2;shape=mxgraph.azure.script_file;pointerEvents=1;" vertex="1" parent="1">
          <mxGeometry x="260" y="590" width="47.5" height="50" as="geometry" />
        </mxCell>
        <mxCell id="Muw7vhSDvCNYd5UHzvSD-22" value="" style="edgeStyle=orthogonalEdgeStyle;rounded=0;orthogonalLoop=1;jettySize=auto;html=1;" edge="1" parent="1" source="Muw7vhSDvCNYd5UHzvSD-23" target="Muw7vhSDvCNYd5UHzvSD-19">
          <mxGeometry relative="1" as="geometry" />
        </mxCell>
        <mxCell id="Muw7vhSDvCNYd5UHzvSD-23" value="AI Service" style="image;sketch=0;aspect=fixed;html=1;points=[];align=center;fontSize=12;image=img/lib/mscae/Machine_Learning_Studio_Web_Service_Plans.svg;" vertex="1" parent="1">
          <mxGeometry x="460" y="573" width="50" height="50" as="geometry" />
        </mxCell>
        <mxCell id="Muw7vhSDvCNYd5UHzvSD-24" value="" style="shape=image;verticalLabelPosition=bottom;labelBackgroundColor=#ffffff;verticalAlign=top;aspect=fixed;imageAspect=0;image=data:image/svg+xml,PHN2ZyB4bWxuczpkYz0iaHR0cDovL3B1cmwub3JnL2RjL2VsZW1lbnRzLzEuMS8iIHhtbG5zOmNjPSJodHRwOi8vY3JlYXRpdmVjb21tb25zLm9yZy9ucyMiIHhtbG5zOnJkZj0iaHR0cDovL3d3dy53My5vcmcvMTk5OS8wMi8yMi1yZGYtc3ludGF4LW5zIyIgeG1sbnM6c3ZnPSJodHRwOi8vd3d3LnczLm9yZy8yMDAwL3N2ZyIgeG1sbnM9Imh0dHA6Ly93d3cudzMub3JnLzIwMDAvc3ZnIiB4bWxuczp4bGluaz0iaHR0cDovL3d3dy53My5vcmcvMTk5OS94bGluayIgeG1sbnM6c29kaXBvZGk9Imh0dHA6Ly9zb2RpcG9kaS5zb3VyY2Vmb3JnZS5uZXQvRFREL3NvZGlwb2RpLTAuZHRkIiB4bWxuczppbmtzY2FwZT0iaHR0cDovL3d3dy5pbmtzY2FwZS5vcmcvbmFtZXNwYWNlcy9pbmtzY2FwZSIgdmVyc2lvbj0iMS4xIiBpZD0iTGF5ZXJfMSIgeD0iMHB4IiB5PSIwcHgiIHZpZXdCb3g9IjAgMCA0Ny45NTM3NyA0Ny45NDAzNjkiIHhtbDpzcGFjZT0icHJlc2VydmUiIHNvZGlwb2RpOmRvY25hbWU9ImRldm9wc19zaGlwcGluZy5zdmciIHdpZHRoPSI0Ny45NTM3NyIgaGVpZ2h0PSI0Ny45NDAzNjkiIGlua3NjYXBlOnZlcnNpb249IjAuOTIuMyAoMjQwNTU0NiwgMjAxOC0wMy0xMSkiPjxtZXRhZGF0YSBpZD0ibWV0YWRhdGE0NjI2NyI+PHJkZjpSREY+PGNjOldvcmsgcmRmOmFib3V0PSIiPjxkYzpmb3JtYXQ+aW1hZ2Uvc3ZnK3htbDwvZGM6Zm9ybWF0PjxkYzp0eXBlIHJkZjpyZXNvdXJjZT0iaHR0cDovL3B1cmwub3JnL2RjL2RjbWl0eXBlL1N0aWxsSW1hZ2UiLz48ZGM6dGl0bGUvPjwvY2M6V29yaz48L3JkZjpSREY+PC9tZXRhZGF0YT48ZGVmcyBpZD0iZGVmczQ2MjY1Ii8+PHNvZGlwb2RpOm5hbWVkdmlldyBwYWdlY29sb3I9IiNmZmZmZmYiIGJvcmRlcmNvbG9yPSIjNjY2NjY2IiBib3JkZXJvcGFjaXR5PSIxIiBvYmplY3R0b2xlcmFuY2U9IjEwIiBncmlkdG9sZXJhbmNlPSIxMCIgZ3VpZGV0b2xlcmFuY2U9IjEwIiBpbmtzY2FwZTpwYWdlb3BhY2l0eT0iMCIgaW5rc2NhcGU6cGFnZXNoYWRvdz0iMiIgaW5rc2NhcGU6d2luZG93LXdpZHRoPSIxOTIwIiBpbmtzY2FwZTp3aW5kb3ctaGVpZ2h0PSIxMDE3IiBpZD0ibmFtZWR2aWV3NDYyNjMiIHNob3dncmlkPSJmYWxzZSIgZml0LW1hcmdpbi10b3A9IjAiIGZpdC1tYXJnaW4tbGVmdD0iMCIgZml0LW1hcmdpbi1yaWdodD0iMCIgZml0LW1hcmdpbi1ib3R0b209IjAiIGlua3NjYXBlOnpvb209IjEuMDMwMzAzIiBpbmtzY2FwZTpjeD0iLTYuNzg1MDAzNyIgaW5rc2NhcGU6Y3k9Ii0zMTAuNDQ5NjMiIGlua3NjYXBlOndpbmRvdy14PSItOCIgaW5rc2NhcGU6d2luZG93LXk9Ii04IiBpbmtzY2FwZTp3aW5kb3ctbWF4aW1pemVkPSIxIiBpbmtzY2FwZTpjdXJyZW50LWxheWVyPSJMYXllcl8xIi8+JiN4YTsmI3hhOzxnIGlkPSJnNDYyNjAiIHRyYW5zZm9ybT0idHJhbnNsYXRlKC0zMDQuMTYsLTYyLjM2MDAwMSkiPiYjeGE7CTxkZWZzIGlkPSJkZWZzNDYyMTkiPiYjeGE7CQk8cmVjdCBpZD0iU1ZHSURfM18iIHg9IjMwNC4xNiIgeT0iNjIuMzYwMDAxIiB3aWR0aD0iNDguMTYiIGhlaWdodD0iNDguMTYiLz4mI3hhOwk8L2RlZnM+JiN4YTsJPGNsaXBQYXRoIGlkPSJTVkdJRF80XyI+JiN4YTsJCTx1c2UgeGxpbms6aHJlZj0iI1NWR0lEXzNfIiBzdHlsZT0ib3ZlcmZsb3c6dmlzaWJsZSIgaWQ9InVzZTQ2MjIxIiB4PSIwIiB5PSIwIiB3aWR0aD0iMTAwJSIgaGVpZ2h0PSIxMDAlIi8+JiN4YTsJPC9jbGlwUGF0aD4mI3hhOwk8ZyBjbGlwLXBhdGg9InVybCgjU1ZHSURfNF8pIiBpZD0iZzQ2MjU4Ij4mI3hhOwkJPGRlZnMgaWQ9ImRlZnM0NjIyNSI+JiN4YTsJCQk8cmVjdCBpZD0iU1ZHSURfNV8iIHg9IjMwNC4xNiIgeT0iNjIuMzYwMDAxIiB3aWR0aD0iNDguMTYiIGhlaWdodD0iNDguMTYiLz4mI3hhOwkJPC9kZWZzPiYjeGE7CQk8Y2xpcFBhdGggaWQ9IlNWR0lEXzZfIj4mI3hhOwkJCTx1c2UgeGxpbms6aHJlZj0iI1NWR0lEXzVfIiBzdHlsZT0ib3ZlcmZsb3c6dmlzaWJsZSIgaWQ9InVzZTQ2MjI3IiB4PSIwIiB5PSIwIiB3aWR0aD0iMTAwJSIgaGVpZ2h0PSIxMDAlIi8+JiN4YTsJCTwvY2xpcFBhdGg+JiN4YTsJCTxwYXRoIHN0eWxlPSJmaWxsOiNmZmZmZmYiIGQ9Im0gMzI4LjEzLDEwOS45NCBjIC05LjUzLDAgLTE4LjE2LC01Ljc1IC0yMS44MSwtMTQuNTYgLTMuNjYsLTguODEgLTEuNjIsLTE5IDUuMTUsLTI1LjcxIDYuNzEsLTYuNzcgMTYuOSwtOC44MSAyNS43MSwtNS4xNSA4LjgxLDMuNjYgMTQuNTYsMTIuMjkgMTQuNTYsMjEuODEgLTAuMDYsMTMgLTEwLjYxLDIzLjU1IC0yMy42MSwyMy42MSB6IiBjbGlwLXBhdGg9InVybCgjU1ZHSURfNl8pIiBpZD0icGF0aDQ2MjMwIiBpbmtzY2FwZTpjb25uZWN0b3ItY3VydmF0dXJlPSIwIi8+JiN4YTsJCTxwYXRoIHN0eWxlPSJmaWxsOiNlNWU1ZTUiIGQ9Im0gMzI4LjEzLDEwOS41OCBjIC02Ljg5LDAgLTEzLjM2LC0zLjA2IC0xNy44LC04LjMzIC0wLjY2LC0wLjg0IC0xLjMyLC0xLjY4IC0xLjg2LC0yLjU4IC0wLjQ4LC0wLjcyIC0wLjg0LC0xLjQ0IC0xLjIsLTIuMTYgbCAtMC4xMiwtMC4xMiBjIC0wLjEyLC0wLjI0IC0wLjE4LC0wLjQyIC0wLjMsLTAuNiBsIC0wLjEyLC0wLjQ4IGMgLTAuNDgsLTAuOTYgLTAuNzgsLTEuOTggLTEuMDgsLTMgLTAuNDIsLTEuNSAtMC42NiwtMyAtMC43MiwtNC40OSBoIDQ2LjM4IGMgLTAuNzcsMTIuMjMgLTEwLjk2LDIxLjc2IC0yMy4xOCwyMS43NiB6IiBjbGlwLXBhdGg9InVybCgjU1ZHSURfNl8pIiBpZD0icGF0aDQ2MjMyIiBpbmtzY2FwZTpjb25uZWN0b3ItY3VydmF0dXJlPSIwIi8+JiN4YTsJCTxwb2x5Z29uIHN0eWxlPSJmaWxsOiNmZmZmZmYiIHBvaW50cz0iMzMxLjksNzguODQgMzMxLjksOTMuMSAzNDMuODksOTMuMSAzNDMuODksODQuMjkgMzM5LjIyLDc4Ljg0ICIgY2xpcC1wYXRoPSJ1cmwoI1NWR0lEXzZfKSIgaWQ9InBvbHlnb240NjIzNCIvPiYjeGE7CQk8cG9seWdvbiBzdHlsZT0iZmlsbDojMmJjN2Y0IiBwb2ludHM9IjMzNC45LDg1LjYxIDMzNC45LDc5LjYyIDMzOS40LDc5LjYyIDM0My4xMSw4My43NSAzNDMuODksODUuNjEgIiBjbGlwLXBhdGg9InVybCgjU1ZHSURfNl8pIiBpZD0icG9seWdvbjQ2MjM2Ii8+JiN4YTsJCTxwYXRoIHN0eWxlPSJmaWxsOiM1NTZhOGEiIGQ9Im0gMzQ0LjY0LDkzLjEgLTAuNzUsMC43NSBIIDMzMS45IEwgMzMxLjE1LDkzLjEgViA3OC44NCBsIDAuNzUsLTAuNzUgaCA3LjMxIGwgMC41NywwLjI2IDQuNjcsNS40NSAwLjE4LDAuNDkgdiA4LjgxIHogbSAtMS41LC04LjgxIDAuMTgsMC40OSAtNC42NywtNS40NSAwLjU3LDAuMjYgaCAtNy4zMSBsIDAuNzUsLTAuNzUgViA5My4xIGwgLTAuNzUsLTAuNzUgaCAxMS45OCBsIC0wLjc1LDAuNzUgeiIgY2xpcC1wYXRoPSJ1cmwoI1NWR0lEXzZfKSIgaWQ9InBhdGg0NjIzOCIgaW5rc2NhcGU6Y29ubmVjdG9yLWN1cnZhdHVyZT0iMCIvPiYjeGE7CQk8cmVjdCB4PSIzMTMuMTQ5OTkiIHk9Ijc1LjEyMDAwMyIgc3R5bGU9ImZpbGw6I2ZmZmZmZiIgd2lkdGg9IjIxLjc1IiBoZWlnaHQ9IjE3Ljk4IiBjbGlwLXBhdGg9InVybCgjU1ZHSURfNl8pIiBpZD0icmVjdDQ2MjQwIi8+JiN4YTsJCTxwYXRoIHN0eWxlPSJmaWxsOiM1NTZhOGEiIGQ9Im0gMzEzLjksOTMuMSAtMC43NSwtMC43NSBoIDIxLjc1IGwgLTAuNzUsMC43NSBWIDc1LjEyIGwgMC43NSwwLjc1IGggLTIxLjc1IGwgMC43NSwtMC43NSB6IG0gLTEuNSwtMTcuOTggMC43NSwtMC43NSBoIDIxLjc1IGwgMC43NSwwLjc1IFYgOTMuMSBsIC0wLjc1LDAuNzUgSCAzMTMuMTUgTCAzMTIuNCw5My4xIFoiIGNsaXAtcGF0aD0idXJsKCNTVkdJRF82XykiIGlkPSJwYXRoNDYyNDIiIGlua3NjYXBlOmNvbm5lY3Rvci1jdXJ2YXR1cmU9IjAiLz4mI3hhOwkJPGNpcmNsZSBzdHlsZT0iZmlsbDojZmZmZmZmIiBjeD0iMzE5LjkyMDAxIiBjeT0iOTQuNjYwMDA0IiByPSI0LjQ4OTk5OTgiIGNsaXAtcGF0aD0idXJsKCNTVkdJRF82XykiIGlkPSJjaXJjbGU0NjI0NCIvPiYjeGE7CQk8cGF0aCBzdHlsZT0iZmlsbDojNTU2YThhIiBkPSJtIDMyMy42NCw5NC4yNCAwLjAxLDAuMDggLTAuMDcsLTAuNDQgMC4wMywwLjEyIC0wLjI3LC0wLjg0IDAuMDUsMC4xMyAtMC40MSwtMC43NiAwLjA4LDAuMTIgLTAuNTUsLTAuNjcgMC4xLDAuMSAtMC42NywtMC41NSAwLjEyLDAuMDggLTAuNzYsLTAuNDEgMC4xMywwLjA1IC0wLjg0LC0wLjI3IDAuMTIsMC4wMyAtMC40NCwtMC4wNyAwLjA4LDAuMDEgLTAuNDYsLTAuMDIgaCAwLjA3IGwgLTAuNDYsMC4wMiAwLjA3LC0wLjAxIC0wLjQ1LDAuMDYgMC4xMiwtMC4wMyAtMC44NSwwLjI3IDAuMTMsLTAuMDUgLTAuNzYsMC40MSAwLjEyLC0wLjA4IC0wLjY3LDAuNTUgMC4xLC0wLjEgLTAuNTUsMC42NyAwLjA4LC0wLjEyIC0wLjQsMC43NiAwLjA1LC0wLjEzIC0wLjI2LDAuODQgMC4wMiwtMC4xMSAtMC4wNywwLjQ0IDAuMDEsLTAuMDggLTAuMDIsMC40NiB2IC0wLjA3IGwgMC4wMiwwLjQ2IC0wLjAxLC0wLjA3IDAuMDcsMC40NSAtMC4wMiwtMC4xMSAwLjI2LDAuODUgLTAuMDUsLTAuMTMgMC40LDAuNzYgLTAuMDgsLTAuMTMgMC41NSwwLjY2IC0wLjEsLTAuMSAwLjY3LDAuNTUgLTAuMTIsLTAuMDggMC43NiwwLjQxIC0wLjE0LC0wLjA2IDAuODUsMC4yNSAtMC4xLC0wLjAyIDAuNDUsMC4wNyAtMC4wNywtMC4wMSAwLjQ2LDAuMDIgaCAtMC4wNyBsIDAuNDYsLTAuMDIgLTAuMDgsMC4wMSAwLjQ0LC0wLjA3IC0wLjEsMC4wMiAwLjg0LC0wLjI1IC0wLjE0LDAuMDYgMC43NiwtMC40MSAtMC4xMiwwLjA4IDAuNjcsLTAuNTUgLTAuMSwwLjEgMC41NSwtMC42NiAtMC4wOSwwLjEzIDAuNDEsLTAuNzYgLTAuMDUsMC4xMyAwLjI3LC0wLjg1IC0wLjAzLDAuMTEgMC4wNywtMC40NSAtMC4wMSwwLjA3IDAuMDIsLTAuNDYgdiAwLjA3IHogbSAxLjUyLDAuMzggdiAwLjA3IGwgLTAuMDIsMC40NiAtMC4wMSwwLjA3IC0wLjA3LDAuNDUgLTAuMDMsMC4xMSAtMC4yNywwLjg1IC0wLjA1LDAuMTMgLTAuNDEsMC43NiAtMC4wOSwwLjEzIC0wLjU1LDAuNjYgLTAuMSwwLjEgLTAuNjcsMC41NSAtMC4xMiwwLjA4IC0wLjc2LDAuNDEgLTAuMTQsMC4wNiAtMC44NCwwLjI1IC0wLjEsMC4wMiAtMC40NCwwLjA3IC0wLjA4LDAuMDEgLTAuNDYsMC4wMiBoIC0wLjA3IGwgLTAuNDYsLTAuMDIgLTAuMDcsLTAuMDEgLTAuNDUsLTAuMDcgLTAuMSwtMC4wMiAtMC44NSwtMC4yNSAtMC4xNCwtMC4wNiAtMC43NiwtMC40MSAtMC4xMiwtMC4wOCAtMC42NywtMC41NSAtMC4xLC0wLjEgLTAuNTUsLTAuNjYgLTAuMDgsLTAuMTMgLTAuNCwtMC43NiAtMC4wNSwtMC4xMyAtMC4yNiwtMC44NSAtMC4wMiwtMC4xMSAtMC4wNywtMC40NSAtMC4wMSwtMC4wNyAtMC4wMiwtMC40NiB2IC0wLjA3IGwgMC4wMiwtMC40NiAwLjAxLC0wLjA4IDAuMDcsLTAuNDQgMC4wMiwtMC4xMSAwLjI2LC0wLjg0IDAuMDUsLTAuMTMgMC40LC0wLjc2IDAuMDgsLTAuMTIgMC41NSwtMC42NyAwLjEsLTAuMSAwLjY3LC0wLjU1IDAuMTIsLTAuMDggMC43NiwtMC40MSAwLjEzLC0wLjA1IDAuODUsLTAuMjcgMC4xMiwtMC4wMyAwLjQ1LC0wLjA3IDAuMDcsLTAuMDEgMC40NiwtMC4wMiBoIDAuMDcgbCAwLjQ2LDAuMDIgMC4wOCwwLjAxIDAuNDQsMC4wNyAwLjEyLDAuMDMgMC44NCwwLjI3IDAuMTMsMC4wNSAwLjc2LDAuNDEgMC4xMiwwLjA4IDAuNjcsMC41NSAwLjEsMC4xIDAuNTUsMC42NyAwLjA4LDAuMTIgMC40MSwwLjc2IDAuMDUsMC4xMyAwLjI3LDAuODQgMC4wMywwLjEyIDAuMDcsMC40NCAwLjAxLDAuMDggeiIgY2xpcC1wYXRoPSJ1cmwoI1NWR0lEXzZfKSIgaWQ9InBhdGg0NjI0NiIgaW5rc2NhcGU6Y29ubmVjdG9yLWN1cnZhdHVyZT0iMCIvPiYjeGE7CQk8cGF0aCBzdHlsZT0iZmlsbDojMmJjN2Y0IiBkPSJtIDMyMS40Miw5NC42NiBjIDAsMC44NCAtMC43MiwxLjUgLTEuNSwxLjUgLTAuODQsMCAtMS41LC0wLjY2IC0xLjUsLTEuNSAwLC0wLjg0IDAuNjYsLTEuNSAxLjUsLTEuNSAwLjc4LDAgMS41LDAuNjYgMS41LDEuNSB6IiBjbGlwLXBhdGg9InVybCgjU1ZHSURfNl8pIiBpZD0icGF0aDQ2MjQ4IiBpbmtzY2FwZTpjb25uZWN0b3ItY3VydmF0dXJlPSIwIi8+JiN4YTsJCTxjaXJjbGUgc3R5bGU9ImZpbGw6I2ZmZmZmZiIgY3g9IjMzNC44OTk5OSIgY3k9Ijk0LjY2MDAwNCIgcj0iNC40ODk5OTk4IiBjbGlwLXBhdGg9InVybCgjU1ZHSURfNl8pIiBpZD0iY2lyY2xlNDYyNTAiLz4mI3hhOwkJPHBhdGggc3R5bGU9ImZpbGw6IzU1NmE4YSIgZD0ibSAzMzguNjIsOTQuMjQgMC4wMSwwLjA4IC0wLjA3LC0wLjQ0IDAuMDMsMC4xMiAtMC4yNywtMC44NCAwLjA1LDAuMTMgLTAuNDEsLTAuNzYgMC4wOCwwLjEyIC0wLjU1LC0wLjY3IDAuMSwwLjEgLTAuNjcsLTAuNTUgMC4xMiwwLjA4IC0wLjc2LC0wLjQxIDAuMTMsMC4wNSAtMC44NCwtMC4yNyAwLjEyLDAuMDMgLTAuNDQsLTAuMDcgMC4wOCwwLjAxIC0wLjQ2LC0wLjAyIGggMC4wNyBsIC0wLjQ2LDAuMDIgMC4wNywtMC4wMSAtMC40NSwwLjA2IDAuMTIsLTAuMDMgLTAuODUsMC4yNyAwLjEzLC0wLjA1IC0wLjc2LDAuNDEgMC4xMiwtMC4wOCAtMC42NywwLjU1IDAuMSwtMC4xIC0wLjU1LDAuNjcgMC4wOCwtMC4xMiAtMC40LDAuNzYgMC4wNSwtMC4xMyAtMC4yNiwwLjg0IDAuMDIsLTAuMTEgLTAuMDcsMC40NCAwLjAxLC0wLjA4IC0wLjAyLDAuNDYgdiAtMC4wNyBsIDAuMDIsMC40NiAtMC4wMSwtMC4wNyAwLjA3LDAuNDUgLTAuMDIsLTAuMTEgMC4yNiwwLjg1IC0wLjA1LC0wLjEzIDAuNCwwLjc2IC0wLjA4LC0wLjEzIDAuNTUsMC42NiAtMC4xLC0wLjEgMC42NywwLjU1IC0wLjEyLC0wLjA4IDAuNzYsMC40MSAtMC4xNCwtMC4wNiAwLjg1LDAuMjUgLTAuMSwtMC4wMiAwLjQ1LDAuMDcgLTAuMDcsLTAuMDEgMC40NiwwLjAyIGggLTAuMDcgbCAwLjQ2LC0wLjAyIC0wLjA4LDAuMDEgMC40NCwtMC4wNyAtMC4xLDAuMDIgMC44NCwtMC4yNSAtMC4xNCwwLjA2IDAuNzYsLTAuNDEgLTAuMTIsMC4wOCAwLjY3LC0wLjU1IC0wLjEsMC4xIDAuNTUsLTAuNjYgLTAuMDksMC4xMyAwLjQxLC0wLjc2IC0wLjA1LDAuMTMgMC4yNywtMC44NSAtMC4wMywwLjExIDAuMDcsLTAuNDUgLTAuMDEsMC4wNyAwLjAyLC0wLjQ2IHYgMC4wNyB6IG0gMS41MiwwLjM4IHYgMC4wNyBsIC0wLjAyLDAuNDYgLTAuMDEsMC4wNyAtMC4wNywwLjQ1IC0wLjAzLDAuMTEgLTAuMjcsMC44NSAtMC4wNSwwLjEzIC0wLjQxLDAuNzYgLTAuMDksMC4xMyAtMC41NSwwLjY2IC0wLjEsMC4xIC0wLjY3LDAuNTUgLTAuMTIsMC4wOCAtMC43NiwwLjQxIC0wLjE0LDAuMDYgLTAuODQsMC4yNSAtMC4xLDAuMDIgLTAuNDQsMC4wNyAtMC4wOCwwLjAxIC0wLjQ2LDAuMDIgaCAtMC4wNyBsIC0wLjQ2LC0wLjAyIC0wLjA3LC0wLjAxIC0wLjQ1LC0wLjA3IC0wLjEsLTAuMDIgLTAuODUsLTAuMjUgLTAuMTQsLTAuMDYgLTAuNzYsLTAuNDEgLTAuMTIsLTAuMDggLTAuNjcsLTAuNTUgLTAuMSwtMC4xIC0wLjU1LC0wLjY2IC0wLjA4LC0wLjEzIC0wLjQsLTAuNzYgLTAuMDUsLTAuMTMgLTAuMjYsLTAuODUgLTAuMDIsLTAuMTEgLTAuMDcsLTAuNDUgLTAuMDEsLTAuMDcgLTAuMDIsLTAuNDYgdiAtMC4wNyBsIDAuMDIsLTAuNDYgMC4wMSwtMC4wOCAwLjA3LC0wLjQ0IDAuMDIsLTAuMTEgMC4yNiwtMC44NCAwLjA1LC0wLjEzIDAuNCwtMC43NiAwLjA4LC0wLjEyIDAuNTUsLTAuNjcgMC4xLC0wLjEgMC42NywtMC41NSAwLjEyLC0wLjA4IDAuNzYsLTAuNDEgMC4xMywtMC4wNSAwLjg1LC0wLjI3IDAuMTIsLTAuMDMgMC40NSwtMC4wNyAwLjA3LC0wLjAxIDAuNDYsLTAuMDIgaCAwLjA3IGwgMC40NiwwLjAyIDAuMDgsMC4wMSAwLjQ0LDAuMDcgMC4xMiwwLjAzIDAuODQsMC4yNyAwLjEzLDAuMDUgMC43NiwwLjQxIDAuMTIsMC4wOCAwLjY3LDAuNTUgMC4xLDAuMSAwLjU1LDAuNjcgMC4wOCwwLjEyIDAuNDEsMC43NiAwLjA1LDAuMTMgMC4yNywwLjg0IDAuMDMsMC4xMiAwLjA3LDAuNDQgMC4wMSwwLjA4IHoiIGNsaXAtcGF0aD0idXJsKCNTVkdJRF82XykiIGlkPSJwYXRoNDYyNTIiIGlua3NjYXBlOmNvbm5lY3Rvci1jdXJ2YXR1cmU9IjAiLz4mI3hhOwkJPHBhdGggc3R5bGU9ImZpbGw6IzJiYzdmNCIgZD0ibSAzMzYuNCw5NC42NiBjIDAsMC44NCAtMC43MiwxLjUgLTEuNSwxLjUgLTAuODQsMCAtMS41LC0wLjY2IC0xLjUsLTEuNSAwLC0wLjg0IDAuNjYsLTEuNSAxLjUsLTEuNSAwLjc4LDAgMS41LDAuNjYgMS41LDEuNSB6IiBjbGlwLXBhdGg9InVybCgjU1ZHSURfNl8pIiBpZD0icGF0aDQ2MjU0IiBpbmtzY2FwZTpjb25uZWN0b3ItY3VydmF0dXJlPSIwIi8+JiN4YTsJCTxwYXRoIHN0eWxlPSJmaWxsOiM1NTZhOGEiIGQ9Im0gMzI4LjEzLDYyLjM2IGMgLTE1Ljc2LDAgLTI3LjIxLDE0LjkyIC0yMy4xOSwzMC4xNCAwLjMsMS4wMiAwLjY2LDIuMSAxLjA4LDMuMTIgMC4xOCwwLjQyIDAuMzYsMC44NCAwLjU0LDEuMiAwLjM2LDAuNzggMC43OCwxLjU2IDEuMjYsMi4yOCAwLjYsMC45IDEuMjYsMS44IDEuOTIsMi42NCAxMS4yNywxMy40MiAzMi43MiwxMC42MSA0MC4wOSwtNS4yNyA3LjQyLC0xNS44OSAtNC4xNCwtMzQuMTEgLTIxLjcsLTM0LjExIHogbSAwLDEuNSBjIDE2LjQyLDAgMjcuMzMsMTcuMDggMjAuMzcsMzIgLTYuOTUsMTQuODYgLTI3LjAzLDE3LjUgLTM3LjU3LDQuOTEgLTAuNzIsLTAuNzggLTEuMzIsLTEuNjIgLTEuODYsLTIuNTIgLTAuNDIsLTAuNjYgLTAuODQsLTEuMzggLTEuMTQsLTIuMSAtMC4yNCwtMC40MiAtMC40MiwtMC43OCAtMC41NCwtMS4xNCAtMC40MiwtMC45NiAtMC43MiwtMS45MiAtMC45NiwtMi45NCAtMy44MywtMTQuMjUgNi45NiwtMjguMjEgMjEuNywtMjguMjEgeiIgY2xpcC1wYXRoPSJ1cmwoI1NWR0lEXzZfKSIgaWQ9InBhdGg0NjI1NiIgaW5rc2NhcGU6Y29ubmVjdG9yLWN1cnZhdHVyZT0iMCIvPiYjeGE7CTwvZz4mI3hhOzwvZz4mI3hhOzwvc3ZnPg==;fillColor=#4D9900;" vertex="1" parent="1">
          <mxGeometry x="355" y="340" width="48" height="48" as="geometry" />
        </mxCell>
        <mxCell id="Muw7vhSDvCNYd5UHzvSD-25" value="Ninja prompt" style="verticalLabelPosition=bottom;html=1;verticalAlign=top;align=center;strokeColor=none;fillColor=#00BEF2;shape=mxgraph.azure.script_file;pointerEvents=1;" vertex="1" parent="1">
          <mxGeometry x="307.5" y="400.75" width="47.5" height="50" as="geometry" />
        </mxCell>
        <mxCell id="Muw7vhSDvCNYd5UHzvSD-26" value="Vector DB&lt;div&gt;Context&lt;/div&gt;" style="verticalLabelPosition=bottom;html=1;verticalAlign=top;align=center;strokeColor=none;fillColor=#00BEF2;shape=mxgraph.azure.script_file;pointerEvents=1;" vertex="1" parent="1">
          <mxGeometry x="390" y="402.5" width="47.5" height="50" as="geometry" />
        </mxCell>
      </root>
    </mxGraphModel>
  </diagram>
</mxfile>
